<svg preserveAspectRatio="none" width="100%" height="100%" overflow="visible" style="display: block;" viewBox="0 0 49 32" fill="none" xmlns="http://www.w3.org/2000/svg">
<g id="Group 4">
<path id="Vector" d="M15.5158 1.65673L41.17 0.0148532C41.617 -0.0137479 42.0657 -0.00102487 42.5103 0.0528606L42.9505 0.106242C46.5136 0.538109 49.1279 3.66381 48.923 7.24697C48.8659 8.25041 48.5868 9.22868 48.1062 10.1114L38.6966 27.3941C38.0955 28.4982 37.2295 29.4357 36.1765 30.1225L35.1879 30.7674C33.5237 31.8526 31.5006 32.2421 29.5525 31.8526L27.8323 31.5086C27.247 31.3914 26.6776 31.2058 26.1359 30.9554L4.60026 21.0003C3.57059 20.5243 2.6607 19.8236 1.93748 18.9497L1.61672 18.5621C-0.661127 15.8097 -0.516589 11.7877 1.95293 9.20591C2.37249 8.76731 2.84697 8.3848 3.3646 8.06787L12.037 2.75821C13.0898 2.11366 14.2839 1.73557 15.5158 1.65673Z" fill="var(--fill-0, white)" fill-opacity="0.988235"/>
<path id="Vector_2" d="M42.7504 19.5336C41.9613 19.5336 41.2632 19.3459 40.6569 18.9705C40.0599 18.5951 39.6364 18.0801 39.3862 17.4255L40.7868 16.7035C40.9985 17.1271 41.2778 17.4592 41.6242 17.6998C41.9804 17.9309 42.3703 18.0464 42.7938 18.0464C43.1597 18.0464 43.4436 17.9742 43.6458 17.8298C43.8575 17.6758 43.9634 17.4688 43.9634 17.2089C43.9634 16.9875 43.8769 16.8046 43.7035 16.6602C43.5301 16.5062 43.3039 16.4051 43.0249 16.357L41.7396 16.1404C41.0756 15.9671 40.5606 15.6735 40.1947 15.2596C39.8386 14.836 39.6604 14.3403 39.6604 13.7723C39.6604 13.3006 39.7854 12.8819 40.0359 12.5161C40.2861 12.1407 40.6326 11.8519 41.0756 11.6497C41.528 11.4476 42.0381 11.3465 42.6062 11.3465C43.3279 11.3465 43.9634 11.5198 44.5121 11.8663C45.0607 12.2032 45.4603 12.6749 45.7105 13.2814L44.3099 14.0033C44.1559 13.6664 43.92 13.3969 43.6024 13.1947C43.2848 12.9926 42.9335 12.8915 42.5482 12.8915C42.2306 12.8915 41.9755 12.9637 41.783 13.1081C41.6003 13.2525 41.5086 13.4402 41.5086 13.6713C41.5086 14.0948 41.8265 14.3788 42.4617 14.5232L43.7178 14.7542C44.3821 14.9371 44.8971 15.2355 45.263 15.6494C44.9994 15.9906 44.9994 15.7649 44.7738 16.4418C44.5121 16.893 44.0967 17.7955 43.8711 18.2467C43.6455 18.6979 43.7178 18.5196 43.4199 19.1492C42.9578 19.3513 43.3571 19.5336 42.7504 19.5336Z" fill="var(--fill-0, black)"/>
<path id="Vector_3" d="M31.8238 11.5198H33.5998V12.4872C33.802 12.1214 34.0956 11.8423 34.4806 11.6497C34.8753 11.4476 35.3229 11.3465 35.8233 11.3465C36.3914 11.3465 36.9015 11.4717 37.3539 11.7219C37.8063 11.9722 38.1579 12.3236 38.4081 12.776C38.6583 13.2284 38.7834 13.7434 38.7834 14.321V19.3748H36.8921V14.7686C36.8921 14.2584 36.7427 13.8493 36.4442 13.5413C36.1554 13.2332 35.7753 13.0792 35.3035 13.0792C34.8319 13.0792 34.4469 13.2332 34.1484 13.5413C33.8597 13.8493 33.7152 14.2584 33.7152 14.7686V19.3748H31.8238V11.5198Z" fill="var(--fill-0, black)"/>
<path id="Vector_4" d="M27.2857 19.5481C26.4963 19.5481 25.7936 19.3652 25.1775 18.9994C24.571 18.6336 24.0945 18.1378 23.748 17.5121C23.4111 16.8864 23.2426 16.1933 23.2426 15.4328C23.2426 14.6627 23.4111 13.9697 23.748 13.3536C24.0945 12.7279 24.5614 12.2369 25.1486 11.8808C25.7455 11.5246 26.4096 11.3465 27.1412 11.3465C27.9306 11.3465 28.6139 11.5198 29.1917 11.8663C29.7692 12.2032 30.2071 12.6653 30.5055 13.2525C30.8137 13.8397 30.9677 14.4847 30.9677 15.1874C30.9677 15.5147 30.934 15.7794 30.8666 15.9816H25.2064C25.2641 16.5591 25.4855 17.0212 25.8706 17.3677C26.2556 17.7143 26.7321 17.8875 27.3001 17.8875C27.7236 17.8875 28.0847 17.8009 28.3832 17.6276C28.691 17.4447 28.9367 17.1944 29.1195 16.8768L30.6501 17.6276C30.4093 18.2052 29.9857 18.6721 29.3794 19.0283C28.773 19.3748 28.075 19.5481 27.2857 19.5481ZM28.9461 14.5376C28.8981 14.0563 28.7105 13.6664 28.3832 13.368C28.0558 13.06 27.6418 12.9059 27.1412 12.9059C26.6599 12.9059 26.2508 13.0504 25.9139 13.3391C25.577 13.6183 25.3556 14.0178 25.2497 14.5376H28.9461Z" fill="var(--fill-0, black)"/>
<path id="Vector_5" d="M14.4361 11.5198H16.2122V12.4439C16.501 12.0973 16.8571 11.8278 17.2807 11.6353C17.7139 11.4428 18.2 11.3465 18.7391 11.3465C19.4707 11.3465 20.1397 11.5294 20.7462 11.8952C21.3526 12.2514 21.8291 12.7423 22.1757 13.368C22.5222 13.9937 22.6955 14.6868 22.6955 15.4473C22.6955 16.2078 22.5222 16.9009 22.1757 17.5266C21.8291 18.1523 21.3526 18.648 20.7462 19.0138C20.1493 19.37 19.4755 19.5481 18.7246 19.5481C18.2433 19.5481 17.7957 19.471 17.3818 19.317C16.9679 19.1534 16.6165 18.9224 16.3277 18.6239V22.2627H14.4361V11.5198ZM16.3277 15.4473C16.3277 15.8997 16.4192 16.3088 16.602 16.6746C16.7946 17.0308 17.0545 17.31 17.3818 17.5121C17.7187 17.7143 18.0941 17.8153 18.5081 17.8153C19.153 17.8153 19.6824 17.5939 20.0964 17.1511C20.5199 16.6987 20.7317 16.1308 20.7317 15.4473C20.7317 15.0045 20.6354 14.605 20.4429 14.2488C20.2504 13.883 19.9857 13.5991 19.6488 13.3969C19.3118 13.1851 18.9316 13.0792 18.5081 13.0792C18.0941 13.0792 17.7187 13.1803 17.3818 13.3824C17.0545 13.5846 16.7946 13.8686 16.602 14.2344C16.4192 14.5906 16.3277 14.9948 16.3277 15.4473Z" fill="var(--fill-0, black)"/>
<path id="Vector_6" d="M7.79508 19.5481C6.74582 19.5481 5.79284 19.3075 4.93608 18.8261C4.07935 18.3352 3.4055 17.6662 2.91456 16.819C2.42365 15.9719 2.17816 15.0286 2.17816 13.989C2.17816 12.9493 2.42365 12.0059 2.91456 11.1588C3.4055 10.3117 4.07935 9.64751 4.93608 9.16619C5.79284 8.68487 6.74582 8.44421 7.79508 8.44421C8.84434 8.44421 9.79735 8.68487 10.6541 9.16619C11.5108 9.64751 12.1847 10.3117 12.6756 11.1588C13.1762 12.0059 13.4264 12.9493 13.4264 13.989C13.4264 15.0286 13.1762 15.9719 12.6756 16.819C12.1847 17.6662 11.5108 18.3352 10.6541 18.8261C9.79735 19.3075 8.84434 19.5481 7.79508 19.5481ZM4.14193 13.989C4.14193 14.7013 4.30076 15.3462 4.61842 15.9238C4.93608 16.5014 5.36927 16.9538 5.91797 17.2811C6.47628 17.5988 7.10201 17.7576 7.79508 17.7576C8.48818 17.7576 9.10907 17.5988 9.65777 17.2811C10.2161 16.9538 10.6541 16.5014 10.9717 15.9238C11.2894 15.3462 11.4483 14.7013 11.4483 13.989C11.4483 13.2766 11.2894 12.6365 10.9717 12.0685C10.6541 11.4909 10.2161 11.0433 9.65777 10.7256C9.10907 10.3984 8.48818 10.2347 7.79508 10.2347C7.10201 10.2347 6.47628 10.3984 5.91797 10.7256C5.36927 11.0433 4.93608 11.4909 4.61842 12.0685C4.30076 12.6365 4.14193 13.2766 4.14193 13.989Z" fill="var(--fill-0, black)"/>
</g>
</svg>
