<svg preserveAspectRatio="none" width="100%" height="100%" overflow="visible" style="display: block;" viewBox="0 0 40 40" fill="none" xmlns="http://www.w3.org/2000/svg">
<g id="Vector">
<path d="M0.0306073 39.3289L14.2304 0.328937C14.3023 0.131442 14.4901 0 14.7003 0H25.736C26.0838 0 26.3254 0.346378 26.2052 0.672796L11.8421 39.6728C11.7697 39.8694 11.5824 40 11.3729 40H0.500436C0.153367 40 -0.088134 39.6551 0.0306073 39.3289Z" fill="var(--fill-0, #F3F5F7)"/>
<path d="M39.5447 39.3297L35.076 26.9963C35.0043 26.7985 34.8164 26.6667 34.6059 26.6667H27.4924C27.148 26.6667 26.9067 27.0068 27.0205 27.3319L31.3399 39.6653C31.4101 39.8658 31.5994 40 31.8118 40H39.0746C39.4213 40 39.6628 39.6557 39.5447 39.3297Z" fill="var(--fill-0, #F3F5F7)"/>
</g>
</svg>
