<svg preserveAspectRatio="none" width="100%" height="100%" overflow="visible" style="display: block;" viewBox="0 0 13 13" fill="none" xmlns="http://www.w3.org/2000/svg">
<g id="Vector">
<path d="M0.00929336 11.9415L4.32081 0.0998757C4.34265 0.0399099 4.39965 0 4.46347 0H7.81426C7.91987 0 7.99322 0.105171 7.95672 0.204282L3.59564 12.0459C3.57366 12.1056 3.51679 12.1453 3.45318 12.1453H0.151948C0.046567 12.1453 -0.0267603 12.0405 0.00929336 11.9415Z" fill="var(--fill-0, black)"/>
<path d="M12.007 11.9417L10.6502 8.19695C10.6284 8.13686 10.5714 8.09685 10.5075 8.09685H8.34757C8.24298 8.09685 8.16972 8.20013 8.20429 8.29884L9.51579 12.0436C9.53711 12.1045 9.59457 12.1453 9.65907 12.1453H11.8643C11.9696 12.1453 12.0429 12.0407 12.007 11.9417Z" fill="var(--fill-0, black)"/>
</g>
</svg>
