<svg preserveAspectRatio="none" width="100%" height="100%" overflow="visible" style="display: block;" viewBox="0 0 187 40" fill="none" xmlns="http://www.w3.org/2000/svg">
<g id="atomsix">
<path id="Vector" d="M178.605 39.5244L173.423 32.0515H173.295L168.087 39.5244H160.621L169.447 26.1724L160.698 13.3953H168.523L173.269 20.8682H173.397L178.195 13.3953H185.968L177.22 26.1463L186.122 39.5244H178.605Z" fill="var(--fill-0, #171718)"/>
<path id="Vector_2" d="M150.774 39.5607V13.3902H157.708V39.5607H150.774Z" fill="var(--fill-0, #171718)"/>
<path id="Vector_3" d="M137.214 39.9999H137.188C133.048 39.9999 129.53 38.6821 126.709 36.2273L130.073 31.447C132.195 33.4108 134.42 34.4702 137.24 34.4702C139.258 34.4702 140.422 33.5658 140.422 32.3255C140.422 31.1369 139.077 30.5426 135.713 29.4573C131.444 28.062 127.744 26.0465 127.744 21.0594C127.744 16.3824 131.781 13.3075 137.059 13.3075C140.655 13.3075 143.579 14.2894 146.528 16.5633L143.165 21.6279C141.173 19.7416 138.896 18.8888 137.007 18.8888C135.869 18.8888 134.471 19.4832 134.471 20.8268C134.471 21.9121 135.817 22.6615 138.352 23.6175C143.967 25.6847 147.253 26.8992 147.253 31.9896C147.253 36.5632 143.993 39.9999 137.214 39.9999Z" fill="var(--fill-0, #171718)"/>
<path id="Vector_4" d="M115.142 12.9508H115.168C120.783 12.9508 124.276 16.6665 124.276 24.5476V39.5864H117.341V26.2272C117.341 22.0929 116.1 19.5089 112.814 19.5089C109.916 19.5089 107.535 22.0153 107.535 26.6407V39.5864H100.627V26.2272C100.627 22.0929 99.256 19.5089 96.0219 19.5089C92.9171 19.5089 90.5626 22.0153 90.5626 26.6407V39.5605H83.6286V13.39H90.5626V17.1575H90.6402C92.6842 14.6252 95.5044 12.9508 98.3763 12.9508C101.817 12.9508 104.508 14.5993 106.061 17.4675H106.138C108.26 14.7544 111.442 12.9508 115.142 12.9508Z" fill="var(--fill-0, #171718)"/>
<path id="Vector_5" d="M66.3945 40C58.1668 40 52.6299 34.3669 52.6299 26.6667C52.6299 18.9665 58.1668 13.2817 66.3945 13.2817C74.467 13.2817 80.185 18.7339 80.185 26.6667C80.185 34.5995 74.467 40 66.3945 40ZM66.3945 33.8243V33.7985C70.1461 33.7985 73.1215 30.8527 73.1215 26.6667C73.1215 22.429 70.2237 19.5091 66.3945 19.5091C62.3582 19.5091 59.6415 22.584 59.6415 26.6667C59.6415 30.6977 62.4359 33.8243 66.3945 33.8243Z" fill="var(--fill-0, #171718)"/>
<path id="Vector_6" d="M45.7714 39.9999H45.7455C41.2953 39.9999 38.3457 37.2092 38.3457 31.3952V19.0283H35.2927V13.2919H38.3457V5.29707L45.2798 4.54772V13.3177H52.3173V19.0542H45.2798V30.465C45.2798 32.6872 45.9266 33.7725 47.5566 33.7725C48.3587 33.7725 49.6524 33.4624 50.8167 32.8681L52.6019 38.3978C50.946 39.3022 49.2384 39.9999 45.7714 39.9999Z" fill="var(--fill-0, #171718)"/>
<path id="Vector_7" d="M28.8493 39.6899L26.1473 31.7737H10.9174L8.21537 39.6899H0L14.7112 0H22.3261L37.092 39.6899H28.8493ZM13.1828 25.0587H23.8546L18.5323 9.47206H18.4778L13.1828 25.0587Z" fill="var(--fill-0, #171718)"/>
<ellipse id="Ellipse 2" cx="154.329" cy="4.29976" rx="4.30532" ry="4.29974" fill="var(--fill-0, #171718)"/>
</g>
</svg>
