<svg preserveAspectRatio="none" width="100%" height="100%" overflow="visible" style="display: block;" viewBox="0 0 57 13" fill="none" xmlns="http://www.w3.org/2000/svg">
<g id="atomsix">
<path id="Vector" d="M54.2302 12.0006L52.6567 9.73157H52.6177L51.0365 12.0006H48.7697L51.4493 7.9465L48.7931 4.06695H51.1689L52.61 6.33598H52.6489L54.1056 4.06695H56.4658L53.8095 7.93857L56.5125 12.0006H54.2302Z" fill="var(--fill-0, white)"/>
<path id="Vector_2" d="M45.7796 12.0117V4.06547H47.885V12.0117H45.7796Z" fill="var(--fill-0, white)"/>
<path id="Vector_3" d="M41.6624 12.1451H41.6546C40.3976 12.1451 39.3292 11.745 38.4729 10.9996L39.4942 9.54815C40.1384 10.1444 40.814 10.4661 41.6703 10.4661C42.283 10.4661 42.6366 10.1915 42.6366 9.8149C42.6366 9.454 42.2281 9.27354 41.2068 8.94402C39.9105 8.52035 38.7871 7.90838 38.7871 6.39415C38.7871 4.97406 40.0127 4.04042 41.6153 4.04042C42.7073 4.04042 43.595 4.33856 44.4906 5.02898L43.4693 6.56675C42.8644 5.99401 42.1731 5.7351 41.5996 5.7351C41.2539 5.7351 40.8297 5.91555 40.8297 6.32353C40.8297 6.65306 41.2382 6.88058 42.0081 7.17088C43.7128 7.79854 44.7105 8.16729 44.7105 9.71291C44.7105 11.1016 43.7207 12.1451 41.6624 12.1451Z" fill="var(--fill-0, white)"/>
<path id="Vector_4" d="M34.9607 3.93204H34.9685C36.6733 3.93204 37.7338 5.06026 37.7338 7.45322V12.0195H35.6284V7.9632C35.6284 6.70787 35.2514 5.9233 34.2537 5.9233C33.3738 5.9233 32.651 6.68434 32.651 8.08873V12.0195H30.5535V7.9632C30.5535 6.70787 30.1371 5.9233 29.1551 5.9233C28.2124 5.9233 27.4975 6.68434 27.4975 8.08873V12.0116H25.3921V4.06542H27.4975V5.20933H27.5211C28.1417 4.44045 28.998 3.93204 29.87 3.93204C30.9149 3.93204 31.7319 4.4326 32.2032 5.30348H32.2268C32.871 4.47967 33.8373 3.93204 34.9607 3.93204Z" fill="var(--fill-0, white)"/>
<path id="Vector_5" d="M20.1594 12.1451C17.6612 12.1451 15.98 10.4347 15.98 8.09667C15.98 5.75863 17.6612 4.03256 20.1594 4.03256C22.6104 4.03256 24.3466 5.68802 24.3466 8.09667C24.3466 10.5053 22.6104 12.1451 20.1594 12.1451ZM20.1594 10.2699V10.2621C21.2985 10.2621 22.2019 9.36768 22.2019 8.09667C22.2019 6.80996 21.322 5.92339 20.1594 5.92339C18.9338 5.92339 18.109 6.85704 18.109 8.09667C18.109 9.32061 18.9574 10.2699 20.1594 10.2699Z" fill="var(--fill-0, white)"/>
<path id="Vector_6" d="M13.8975 12.1451H13.8896C12.5384 12.1451 11.6428 11.2977 11.6428 9.53243V5.77744H10.7158V4.03568H11.6428V1.6082L13.7482 1.38067V4.04353H15.885V5.78529H13.7482V9.24998C13.7482 9.92472 13.9446 10.2542 14.4395 10.2542C14.6831 10.2542 15.0759 10.1601 15.4294 9.97964L15.9714 11.6586C15.4687 11.9332 14.9502 12.1451 13.8975 12.1451Z" fill="var(--fill-0, white)"/>
<path id="Vector_7" d="M8.75957 12.0511L7.93913 9.64751H3.31488L2.49445 12.0511H0L4.4668 0H6.77893L11.2623 12.0511H8.75957ZM4.00272 7.6086H7.24301L5.62701 2.87602H5.61043L4.00272 7.6086Z" fill="var(--fill-0, white)"/>
<ellipse id="Ellipse 2" cx="46.859" cy="1.30534" rx="1.30723" ry="1.30554" fill="var(--fill-0, white)"/>
</g>
</svg>
