<svg preserveAspectRatio="none" width="100%" height="100%" overflow="visible" style="display: block;" viewBox="0 0 24 24" fill="none" xmlns="http://www.w3.org/2000/svg">
<g id="local_activity">
<mask id="mask0_56_129" style="mask-type:alpha" maskUnits="userSpaceOnUse" x="0" y="0" width="24" height="24">
<rect id="Bounding box" width="24" height="24" fill="var(--fill-0, #D9D9D9)"/>
</mask>
<g mask="url(#mask0_56_129)">
<path id="local_activity_2" d="M9.5655 15.5L12 13.65L14.3845 15.4808L13.4693 12.523L15.9423 10.5923H12.9652L12 7.6155L11.0348 10.5923H8.05775L10.4808 12.523L9.5655 15.5ZM4.30775 19.5C3.80908 19.5 3.38308 19.3234 3.02975 18.9703C2.67658 18.6169 2.5 18.1909 2.5 17.6923V14.952C2.5 14.7878 2.54717 14.6423 2.6415 14.5155C2.73567 14.3885 2.86158 14.3019 3.01925 14.2558C3.45775 14.0519 3.81417 13.7493 4.0885 13.348C4.36283 12.9468 4.5 12.4975 4.5 12C4.5 11.5025 4.36283 11.0532 4.0885 10.652C3.81417 10.2507 3.45775 9.94808 3.01925 9.74425C2.86158 9.69808 2.73567 9.6115 2.6415 9.4845C2.54717 9.35767 2.5 9.21217 2.5 9.048V6.30775C2.5 5.80908 2.67658 5.38308 3.02975 5.02975C3.38308 4.67658 3.80908 4.5 4.30775 4.5H19.6923C20.1909 4.5 20.6169 4.67658 20.9703 5.02975C21.3234 5.38308 21.5 5.80908 21.5 6.30775V9.048C21.5 9.21217 21.4528 9.35767 21.3585 9.4845C21.2643 9.6115 21.1384 9.69808 20.9807 9.74425C20.5422 9.94808 20.1858 10.2507 19.9115 10.652C19.6372 11.0532 19.5 11.5025 19.5 12C19.5 12.4975 19.6372 12.9468 19.9115 13.348C20.1858 13.7493 20.5422 14.0519 20.9807 14.2558C21.1384 14.3019 21.2643 14.3885 21.3585 14.5155C21.4528 14.6423 21.5 14.7878 21.5 14.952V17.6923C21.5 18.1909 21.3234 18.6169 20.9703 18.9703C20.6169 19.3234 20.1909 19.5 19.6923 19.5H4.30775ZM4.30775 18H19.6923C19.7821 18 19.8558 17.9712 19.9135 17.9135C19.9712 17.8558 20 17.7821 20 17.6923V15.45C19.3833 15.0833 18.8958 14.5958 18.5375 13.9875C18.1792 13.3792 18 12.7167 18 12C18 11.2833 18.1792 10.6208 18.5375 10.0125C18.8958 9.40417 19.3833 8.91667 20 8.55V6.30775C20 6.21792 19.9712 6.14417 19.9135 6.0865C19.8558 6.02883 19.7821 6 19.6923 6H4.30775C4.21792 6 4.14417 6.02883 4.0865 6.0865C4.02883 6.14417 4 6.21792 4 6.30775V8.55C4.61667 8.91667 5.10417 9.40417 5.4625 10.0125C5.82083 10.6208 6 11.2833 6 12C6 12.7167 5.82083 13.3792 5.4625 13.9875C5.10417 14.5958 4.61667 15.0833 4 15.45V17.6923C4 17.7821 4.02883 17.8558 4.0865 17.9135C4.14417 17.9712 4.21792 18 4.30775 18Z" fill="var(--fill-0, white)"/>
</g>
</g>
</svg>
