<svg preserveAspectRatio="none" width="100%" height="100%" overflow="visible" style="display: block;" viewBox="0 0 57 13" fill="none" xmlns="http://www.w3.org/2000/svg">
<g id="atomsix">
<path id="Vector" d="M54.2302 12.0009L52.6567 9.73185H52.6177L51.0365 12.0009H48.7697L51.4493 7.94678L48.7931 4.06723H51.1689L52.61 6.33625H52.6489L54.1056 4.06723H56.4658L53.8095 7.93885L56.5125 12.0009H54.2302Z" fill="var(--fill-0, white)"/>
<path id="Vector_2" d="M45.7796 12.0119V4.06571H47.885V12.0119H45.7796Z" fill="var(--fill-0, white)"/>
<path id="Vector_3" d="M41.6624 12.1452H41.6546C40.3976 12.1452 39.3292 11.7451 38.4729 10.9998L39.4942 9.54829C40.1384 10.1446 40.814 10.4662 41.6703 10.4662C42.283 10.4662 42.6366 10.1916 42.6366 9.81505C42.6366 9.45414 42.2281 9.27369 41.2068 8.94417C39.9105 8.5205 38.7871 7.90853 38.7871 6.39429C38.7871 4.97421 40.0127 4.04056 41.6153 4.04056C42.7073 4.04056 43.595 4.3387 44.4906 5.02913L43.4693 6.5669C42.8644 5.99416 42.1731 5.73525 41.5996 5.73525C41.2539 5.73525 40.8297 5.9157 40.8297 6.32368C40.8297 6.6532 41.2382 6.88073 42.0081 7.17102C43.7128 7.79869 44.7105 8.16744 44.7105 9.71305C44.7105 11.1018 43.7207 12.1452 41.6624 12.1452Z" fill="var(--fill-0, white)"/>
<path id="Vector_4" d="M34.9607 3.93226H34.9685C36.6733 3.93226 37.7338 5.06048 37.7338 7.45344V12.0197H35.6284V7.96342C35.6284 6.70809 35.2514 5.92352 34.2537 5.92352C33.3738 5.92352 32.651 6.68456 32.651 8.08895V12.0197H30.5535V7.96342C30.5535 6.70809 30.1371 5.92352 29.1551 5.92352C28.2124 5.92352 27.4975 6.68456 27.4975 8.08895V12.0118H25.3921V4.06564H27.4975V5.20955H27.5211C28.1417 4.44067 28.998 3.93226 29.87 3.93226C30.9149 3.93226 31.7319 4.43282 32.2032 5.3037H32.2268C32.871 4.47989 33.8373 3.93226 34.9607 3.93226Z" fill="var(--fill-0, white)"/>
<path id="Vector_5" d="M20.1594 12.1453C17.6612 12.1453 15.98 10.4349 15.98 8.09687C15.98 5.75883 17.6612 4.03276 20.1594 4.03276C22.6104 4.03276 24.3466 5.68822 24.3466 8.09687C24.3466 10.5055 22.6104 12.1453 20.1594 12.1453ZM20.1594 10.2701V10.2623C21.2985 10.2623 22.2019 9.36788 22.2019 8.09687C22.2019 6.81016 21.322 5.92359 20.1594 5.92359C18.9338 5.92359 18.109 6.85724 18.109 8.09687C18.109 9.32081 18.9574 10.2701 20.1594 10.2701Z" fill="var(--fill-0, white)"/>
<path id="Vector_6" d="M13.8975 12.1452H13.8896C12.5384 12.1452 11.6428 11.2979 11.6428 9.53259V5.77761H10.7158V4.03585H11.6428V1.60837L13.7482 1.38084V4.04369H15.885V5.78545H13.7482V9.25014C13.7482 9.92488 13.9446 10.2544 14.4395 10.2544C14.6831 10.2544 15.0759 10.1603 15.4294 9.9798L15.9714 11.6588C15.4687 11.9334 14.9502 12.1452 13.8975 12.1452Z" fill="var(--fill-0, white)"/>
<path id="Vector_7" d="M8.75957 12.0511L7.93913 9.64751H3.31488L2.49445 12.0511H0L4.4668 0H6.77893L11.2623 12.0511H8.75957ZM4.00272 7.6086H7.24301L5.62701 2.87602H5.61043L4.00272 7.6086Z" fill="var(--fill-0, white)"/>
<ellipse id="Ellipse 2" cx="46.859" cy="1.30554" rx="1.30723" ry="1.30554" fill="var(--fill-0, white)"/>
</g>
</svg>
