<svg preserveAspectRatio="none" width="100%" height="100%" overflow="visible" style="display: block;" viewBox="0 0 57 13" fill="none" xmlns="http://www.w3.org/2000/svg">
<g id="atomsix">
<path id="Vector" d="M54.2302 12.0008L52.6567 9.73182H52.6177L51.0365 12.0008H48.7697L51.4493 7.94675L48.7931 4.0672H51.1689L52.61 6.33622H52.6489L54.1056 4.0672H56.4658L53.8095 7.93882L56.5125 12.0008H54.2302Z" fill="var(--fill-0, white)"/>
<path id="Vector_2" d="M45.7796 12.0119V4.06572H47.885V12.0119H45.7796Z" fill="var(--fill-0, white)"/>
<path id="Vector_3" d="M41.6624 12.1453H41.6546C40.3976 12.1453 39.3292 11.7452 38.4729 10.9999L39.4942 9.54839C40.1384 10.1447 40.814 10.4663 41.6703 10.4663C42.283 10.4663 42.6366 10.1917 42.6366 9.81515C42.6366 9.45424 42.2281 9.27379 41.2068 8.94427C39.9105 8.52059 38.7871 7.90862 38.7871 6.39439C38.7871 4.97431 40.0127 4.04066 41.6153 4.04066C42.7073 4.04066 43.595 4.3388 44.4906 5.02923L43.4693 6.567C42.8644 5.99426 42.1731 5.73535 41.5996 5.73535C41.2539 5.73535 40.8297 5.9158 40.8297 6.32378C40.8297 6.6533 41.2382 6.88083 42.0081 7.17112C43.7128 7.79878 44.7105 8.16753 44.7105 9.71315C44.7105 11.1019 43.7207 12.1453 41.6624 12.1453Z" fill="var(--fill-0, white)"/>
<path id="Vector_4" d="M34.9607 3.93228H34.9685C36.6733 3.93228 37.7338 5.06051 37.7338 7.45346V12.0197H35.6284V7.96344C35.6284 6.70812 35.2514 5.92354 34.2537 5.92354C33.3738 5.92354 32.651 6.68458 32.651 8.08897V12.0197H30.5535V7.96344C30.5535 6.70812 30.1371 5.92354 29.1551 5.92354C28.2124 5.92354 27.4975 6.68458 27.4975 8.08897V12.0119H25.3921V4.06566H27.4975V5.20957H27.5211C28.1417 4.44069 28.998 3.93228 29.87 3.93228C30.9149 3.93228 31.7319 4.43284 32.2032 5.30372H32.2268C32.871 4.47992 33.8373 3.93228 34.9607 3.93228Z" fill="var(--fill-0, white)"/>
<path id="Vector_5" d="M20.1594 12.1453C17.6612 12.1453 15.98 10.4349 15.98 8.09691C15.98 5.75887 17.6612 4.0328 20.1594 4.0328C22.6104 4.0328 24.3466 5.68826 24.3466 8.09691C24.3466 10.5056 22.6104 12.1453 20.1594 12.1453ZM20.1594 10.2702V10.2623C21.2985 10.2623 22.2019 9.36793 22.2019 8.09691C22.2019 6.8102 21.322 5.92363 20.1594 5.92363C18.9338 5.92363 18.109 6.85728 18.109 8.09691C18.109 9.32085 18.9574 10.2702 20.1594 10.2702Z" fill="var(--fill-0, white)"/>
<path id="Vector_6" d="M13.8975 12.1453H13.8896C12.5384 12.1453 11.6428 11.298 11.6428 9.53267V5.77769H10.7158V4.03593H11.6428V1.60844L13.7482 1.38092V4.04377H15.885V5.78553H13.7482V9.25022C13.7482 9.92496 13.9446 10.2545 14.4395 10.2545C14.6831 10.2545 15.0759 10.1603 15.4294 9.97988L15.9714 11.6589C15.4687 11.9335 14.9502 12.1453 13.8975 12.1453Z" fill="var(--fill-0, white)"/>
<path id="Vector_7" d="M8.75957 12.0513L7.93913 9.64775H3.31488L2.49445 12.0513H0L4.4668 0.000244141H6.77893L11.2623 12.0513H8.75957ZM4.00272 7.60885H7.24301L5.62701 2.87626H5.61043L4.00272 7.60885Z" fill="var(--fill-0, white)"/>
<ellipse id="Ellipse 2" cx="46.859" cy="1.30558" rx="1.30723" ry="1.30554" fill="var(--fill-0, white)"/>
</g>
</svg>
