<?xml version="1.0" encoding="UTF-8"?>
<svg id="Camada_2" data-name="Camada 2" xmlns="http://www.w3.org/2000/svg" viewBox="0 0 726.01 132.6">
  <defs>
    <style>
      .cls-1 {
        fill: #fff;
      }
    </style>
  </defs>
  <g id="Camada_1-2" data-name="Camada 1">
    <g>
      <path class="cls-1" d="M187.19,75.85h-31.55l-.17-16.46h27.06c4.64,0,8.51-.65,11.62-1.95,3.11-1.3,5.46-3.2,7.04-5.68,1.64-2.49,2.46-5.51,2.46-9.08,0-3.96-.76-7.18-2.29-9.67-1.47-2.49-3.79-4.3-6.96-5.43-3.17-1.19-7.18-1.78-12.05-1.78h-19.17v105.1h-23.33V7.39h42.5c7.01,0,13.26.68,18.75,2.04,5.54,1.3,10.24,3.34,14.08,6.11,3.84,2.77,6.76,6.25,8.74,10.43,2.04,4.18,3.05,9.16,3.05,14.93,0,5.09-1.19,9.78-3.56,14.08-2.32,4.24-5.91,7.69-10.77,10.35-4.81,2.66-10.91,4.18-18.32,4.58l-7.13,5.94ZM186.17,130.9h-37.41l9.75-18.32h27.65c4.64,0,8.45-.76,11.45-2.29,3.05-1.53,5.32-3.62,6.79-6.28,1.53-2.71,2.29-5.83,2.29-9.33,0-3.85-.68-7.18-2.04-10.01-1.3-2.83-3.39-5-6.28-6.53-2.83-1.53-6.56-2.29-11.2-2.29h-24.26l.17-16.46h30.88l5.34,6.36c7.12.06,12.92,1.47,17.39,4.24,4.53,2.77,7.86,6.33,10.01,10.69,2.15,4.35,3.22,9.05,3.22,14.08,0,7.92-1.73,14.56-5.18,19.93-3.39,5.37-8.37,9.42-14.93,12.13-6.5,2.71-14.39,4.07-23.67,4.07ZM289.66,132.6c-6.96,0-13.2-1.13-18.75-3.39-5.54-2.26-10.26-5.4-14.17-9.42-3.84-4.07-6.81-8.79-8.91-14.17-2.04-5.43-3.05-11.25-3.05-17.47v-3.39c0-7.07,1.02-13.49,3.05-19.26,2.04-5.82,4.92-10.83,8.65-15.01,3.73-4.18,8.2-7.41,13.4-9.67,5.2-2.26,10.94-3.39,17.22-3.39s12.24,1.1,17.22,3.31c4.98,2.15,9.13,5.2,12.47,9.16,3.34,3.96,5.85,8.71,7.55,14.25,1.7,5.49,2.55,11.56,2.55,18.24v9.42h-71.93v-15.44h49.88v-1.7c-.11-3.56-.79-6.81-2.04-9.75-1.24-3-3.17-5.37-5.77-7.13-2.6-1.81-5.97-2.71-10.09-2.71-3.34,0-6.25.74-8.74,2.21-2.43,1.41-4.47,3.45-6.11,6.11-1.58,2.6-2.77,5.71-3.56,9.33-.79,3.62-1.19,7.63-1.19,12.05v3.39c0,3.85.51,7.41,1.53,10.69,1.07,3.28,2.63,6.14,4.67,8.57,2.09,2.37,4.58,4.24,7.46,5.6,2.94,1.3,6.28,1.95,10.01,1.95,4.69,0,8.94-.9,12.72-2.71,3.85-1.87,7.18-4.61,10.01-8.23l11.28,11.71c-1.92,2.83-4.52,5.54-7.8,8.14-3.22,2.6-7.13,4.72-11.71,6.36-4.58,1.58-9.87,2.37-15.86,2.37ZM383.14,132.6c-6.96,0-13.2-1.13-18.75-3.39-5.54-2.26-10.26-5.4-14.17-9.42-3.85-4.07-6.81-8.79-8.91-14.17-2.04-5.43-3.05-11.25-3.05-17.47v-3.39c0-7.07,1.02-13.49,3.05-19.26,2.04-5.82,4.92-10.83,8.65-15.01,3.73-4.18,8.2-7.41,13.4-9.67,5.2-2.26,10.94-3.39,17.22-3.39s12.24,1.1,17.22,3.31c4.98,2.15,9.13,5.2,12.47,9.16,3.34,3.96,5.85,8.71,7.55,14.25,1.7,5.49,2.54,11.56,2.54,18.24v9.42h-71.93v-15.44h49.88v-1.7c-.11-3.56-.79-6.81-2.04-9.75-1.24-3-3.17-5.37-5.77-7.13-2.6-1.81-5.97-2.71-10.09-2.71-3.34,0-6.25.74-8.74,2.21-2.43,1.41-4.47,3.45-6.11,6.11-1.58,2.6-2.77,5.71-3.56,9.33-.79,3.62-1.19,7.63-1.19,12.05v3.39c0,3.85.51,7.41,1.53,10.69,1.07,3.28,2.63,6.14,4.66,8.57,2.09,2.37,4.58,4.24,7.47,5.6,2.94,1.3,6.28,1.95,10.01,1.95,4.69,0,8.94-.9,12.72-2.71,3.85-1.87,7.18-4.61,10.01-8.23l11.28,11.71c-1.92,2.83-4.52,5.54-7.8,8.14-3.22,2.6-7.12,4.72-11.71,6.36-4.58,1.58-9.87,2.37-15.86,2.37ZM460.93,108.85l20.1-69.73h14.25l-4.24,24.09-20.27,67.69h-12.3l2.46-22.05ZM449.81,39.12l15.1,69.9,1.36,21.88h-14.17l-24.09-91.78h21.8ZM513.94,108l14.76-68.88h21.72l-23.92,91.78h-14.17l1.61-22.9ZM497.49,39.12l19.93,69.05,2.63,22.73h-12.3l-20.44-67.69-4.16-24.09h14.34ZM604.88,132.6c-6.96,0-13.2-1.13-18.75-3.39-5.54-2.26-10.26-5.4-14.17-9.42-3.85-4.07-6.81-8.79-8.91-14.17-2.04-5.43-3.05-11.25-3.05-17.47v-3.39c0-7.07,1.02-13.49,3.05-19.26,2.04-5.82,4.92-10.83,8.65-15.01,3.73-4.18,8.2-7.41,13.4-9.67,5.2-2.26,10.94-3.39,17.22-3.39s12.24,1.1,17.22,3.31c4.98,2.15,9.13,5.2,12.47,9.16,3.34,3.96,5.85,8.71,7.55,14.25,1.7,5.49,2.55,11.56,2.55,18.24v9.42h-71.93v-15.44h49.88v-1.7c-.11-3.56-.79-6.81-2.04-9.75-1.24-3-3.17-5.37-5.77-7.13-2.6-1.81-5.97-2.71-10.09-2.71-3.34,0-6.25.74-8.74,2.21-2.43,1.41-4.47,3.45-6.11,6.11-1.58,2.6-2.77,5.71-3.56,9.33-.79,3.62-1.19,7.63-1.19,12.05v3.39c0,3.85.51,7.41,1.53,10.69,1.07,3.28,2.63,6.14,4.67,8.57,2.09,2.37,4.58,4.24,7.46,5.6,2.94,1.3,6.28,1.95,10.01,1.95,4.69,0,8.94-.9,12.72-2.71,3.85-1.87,7.18-4.61,10.01-8.23l11.28,11.71c-1.92,2.83-4.52,5.54-7.8,8.14-3.22,2.6-7.13,4.72-11.71,6.36-4.58,1.58-9.87,2.37-15.86,2.37ZM680.88.61v130.29h-22.48V.61h22.48ZM726.01.61v130.29h-22.48V.61h22.48Z"/>
      <path class="cls-1" d="M55.87,46.37c0,1.22.67,2.27,1.7,2.81l25.27,14.2c.51.38,1.15.58,1.82.58s1.31-.19,1.82-.58l25.27-14.2c.51-.27.94-.67,1.24-1.17.3-.5.46-1.06.45-1.64v-28.78c0-1.22-.67-2.27-1.7-2.81L86.48.58c-.51-.38-1.15-.58-1.82-.58s-1.31.19-1.82.58l-25.27,14.2c-1.02.54-1.7,1.6-1.7,2.81v28.78Z"/>
      <path class="cls-1" d="M90.45,67.31v8.3c0,5.24-.65,8.46-2.66,13.3-2.01,4.84-1.62,4.27-5.32,7.98-3.71,3.71-8.46,8.64-13.3,10.64-4.84,2.01-8.06,2.66-13.3,2.66-10.58,0-16.46-5.82-23.94-13.3-7.48-7.48-10.64-13.42-10.64-21.28v-29.26c0-1.05-.21-2.09-.61-3.05-.4-.97-.99-1.85-1.73-2.59-.74-.74-1.62-1.33-2.59-1.73-.97-.4-2.01-.61-3.05-.61H0v34.59c0,14.82,5.89,29.03,16.36,39.5,10.48,10.48,24.69,16.36,39.51,16.36,7.34,0,14.6-1.44,21.38-4.25,6.78-2.81,12.94-6.92,18.13-12.11,5.19-5.19,9.3-11.35,12.11-18.12,2.81-6.78,4.25-14.04,4.25-21.38v-17.6l-21.28,11.96Z"/>
    </g>
  </g>
</svg>