<?xml version="1.0" encoding="UTF-8"?>
<svg id="Camada_2" data-name="Camada 2" xmlns="http://www.w3.org/2000/svg" viewBox="0 0 676.12 236.71">
  <defs>
    <style>
      .cls-1 {
        fill: #fff;
      }
    </style>
  </defs>
  <g id="Camada_1-2" data-name="Camada 1">
    <g>
      <path class="cls-1" d="M396.82,147.38h-11.19c.41-5.52-3.67-9.98-9.27-7.64-3.48,1.45-4.5,5.83-2.71,8.98,2.15,3.8,12.26,6.51,16.43,9.54,10.74,7.82,9.02,25.85-4.8,28.98-12.59,2.85-25.43-4.05-25.27-17.86h11.55c-.53,6.66,3.35,10,9.9,8.99,4.03-.62,4.8-6.19,3.63-9.36-1.35-3.66-6.94-4.98-10.06-6.54-6.21-3.1-12.79-6.73-13.58-14.56-2.4-23.85,36.83-24.14,35.36-.54Z"/>
      <polygon class="cls-1" points="576.89 56.14 590.06 97.62 603.23 56.14 611.89 56.14 611.89 107.35 605.4 107.35 605.58 68.4 592.42 107.19 587.39 107.31 574.37 68.76 574.72 107.35 568.23 107.35 568.23 56.14 576.89 56.14"/>
      <path class="cls-1" d="M443.01,149.91h-11.55c-.04-6.91-1.41-11.18-9.22-10.47-2.68.24-4.67,1.48-5.76,3.98-2.3,5.27-2.32,25.49-.13,30.79,1.63,3.94,5.44,4.71,9.35,4.04,5.12-.89,5.56-5.55,5.75-9.94h11.55c-.56,4.56-1.21,9.28-4.14,12.99-6.68,8.49-22.61,8.83-29.77.88-6.5-7.22-6.04-22.47-5.44-31.74.89-13.77,9.87-22.44,23.97-20.32,10.54,1.59,14.69,9.94,15.38,19.79Z"/>
      <polygon class="cls-1" points="487.04 56.14 507.25 95.09 507.25 56.14 513.74 56.14 513.74 107.35 507.43 107.35 486.68 68.4 486.68 107.35 480.18 107.35 480.18 56.14 487.04 56.14"/>
      <path class="cls-1" d="M538.19,55.51c13.32-1.69,19.51,7.46,20.29,19.57.79,12.21.84,31.64-15.34,32.99-12.66,1.06-18.56-8.23-19.3-19.65s-.65-31,14.34-32.9ZM539.28,61.28c-4.15.61-6.71,3.84-7.86,7.65-1.73,5.77-1.77,21.07.36,26.7,3.27,8.65,15.26,9.17,18.68.63,2.21-5.51,2.21-22.28.34-27.94s-5.83-7.88-11.53-7.04Z"/>
      <path class="cls-1" d="M450.14,55.51c13.32-1.69,19.51,7.46,20.29,19.57.79,12.21.84,31.64-15.34,32.99-12.66,1.06-18.56-8.23-19.3-19.65s-.65-31,14.34-32.9ZM451.23,61.28c-4.15.61-6.71,3.84-7.86,7.65-1.73,5.77-1.77,21.07.36,26.7,3.27,8.65,15.26,9.17,18.68.63,2.21-5.51,2.21-22.28.34-27.94s-5.83-7.88-11.53-7.04Z"/>
      <path class="cls-1" d="M637.51,107.35l16.3-50.61c.75-1.24,4.42-.31,5.85-.62l16.46,51.24h-6.31l-4.37-13.37-17.45.04-3.62,13.33h-6.86ZM663.86,88.24l-7.04-22.72-6.68,22.72h13.71Z"/>
      <path class="cls-1" d="M387.44,56.14v5.41h-20.93v16.59h18.4v5.41h-18.4v17.85s.5.54.54.54h20.75v5.41h-27.79v-51.21h27.42Z"/>
      <path class="cls-1" d="M428.22,72.73h-5.95c-.9-.69-.41-1.93-.63-2.98-1.14-5.35-3.21-9.15-9.45-8.94-7.87.26-10.26,8.02-10.68,14.6-.62,9.65-1.4,30.96,14.1,26.72,4.9-1.34,6.13-6.48,6.12-11.02h6.5c.21,10.92-7.16,18-18.18,16.91-15.71-1.55-15.76-21.14-15.04-32.97s6.99-20.79,19.68-19.63c9.33.85,13.76,8.56,13.54,17.31Z"/>
      <rect class="cls-1" x="623.08" y="56.14" width="6.5" height="51.21"/>
      <g>
        <g>
          <path class="cls-1" d="M317.07.59l10.41,21.17-8.6,11.29c-.59-10.81-1.19-21.64-1.81-32.46Z"/>
          <path class="cls-1" d="M324.29,131.87v.36l-72.89,37.87c-.12-.01-.24.01-.36,0l10.46-147.87c21.18,36.4,41.43,73.36,62.79,109.64Z"/>
          <path class="cls-1" d="M324.29,132.23l-15.15,49.41c-1.07-.86-2.92-1.04-4.27-1.33-17.73-3.79-35.72-6.5-53.47-10.21l72.89-37.87Z"/>
          <path class="cls-1" d="M318.88,33.41c1.79,32.82,3.56,65.65,5.41,98.46-21.36-36.28-41.61-73.24-62.79-109.64h-.36v-.72c.22.05.56-.06.72,0,.56.23,1.24,1.01,2.17.91l54.85,10.99Z"/>
          <path class="cls-1" d="M318.88,33.05c0,.12-.01.24,0,.36l-54.85-10.99c-.93.1-1.61-.68-2.17-.91l17.14-15.89.91-.34,38.97,27.77Z"/>
          <path class="cls-1" d="M318.88,33.05l-38.97-27.77L316.24.25l.83.34c.62,10.82,1.22,21.65,1.81,32.46Z"/>
          <path class="cls-1" d="M309.14,181.64l-53.41,50.5-4.69-59.87c.65-.56.03-1.22,0-1.81-.01-.12,0-.24,0-.36.12.01.24-.01.36,0,17.75,3.71,35.74,6.42,53.47,10.21,1.35.29,3.2.47,4.27,1.33Z"/>
          <path class="cls-1" d="M261.5,22.23l-10.46,147.87c-15.9-1.17-32.9,1.16-48.92.38l-.9-.19c-.37-.23-.24-.71-.34-.91.61.51.75.33,1.08-.36.26-.54.45-1.48.72-2.16,19.26-48.3,39.26-96.31,58.46-144.63h.36Z"/>
          <path class="cls-1" d="M261.14,21.51v.72c-19.2,48.32-39.2,96.33-58.46,144.63L240.57,6.37l20.57,15.14Z"/>
          <path class="cls-1" d="M251.04,172.27l4.69,59.87-.71.22-15.53-7.08c4.26-17.05,6.68-34.9,10.83-51.93.11-.48.64-1.04.36-1.8h.35v.72Z"/>
          <path class="cls-1" d="M251.04,170.46c.03.59.65,1.25,0,1.81v-.72h-.36c.28.76-.25,1.32-.36,1.8l-.36-.72c.28-.77.33-1.63,1.08-2.17Z"/>
          <path class="cls-1" d="M249.96,172.63l.36.72c-4.15,17.03-6.57,34.88-10.83,51.93l-14.98,11.18-.18-.54c8.19-21.22,17.68-41.99,25.63-63.29Z"/>
          <path class="cls-1" d="M240.57,6.37l-37.89,160.49c-.27.68-.46,1.62-.72,2.16-1.46.16-.3-2.52-.33-3.42-1.02-36.19.94-73.99,1.43-110.35.21-15.81.16-31.63.35-47.44,12.24-.6,24.43-1.19,36.62-1.79l.54.35Z"/>
          <path class="cls-1" d="M203.41,7.81c-.19,15.81-.14,31.63-.35,47.44-.49,36.36-2.45,74.16-1.43,110.35.03.9-1.13,3.58.33,3.42-.33.69-.47.87-1.08.36-.25-.48-.47-.96-.72-1.44v-.03s-41.5-122.95-41.5-122.95c.04-.07.22-1.01.36-1.45-.05,1.27.18.59.71.18,8.9-6.83,17.59-14.49,25.99-21.46,5.85-4.84,11.9-9.5,17.69-14.42Z"/>
          <path class="cls-1" d="M200.88,169.38l-77.53-63.86c.09,0,.18-.04.31-.13l.72-1.29,23.45-48.33.92,1.05c18.24,36.08,32.62,75.43,51.4,111.09v.03c.26.48.48.96.73,1.44Z"/>
          <path class="cls-1" d="M158.66,44.96l41.49,122.95c-18.78-35.66-33.16-75.01-51.4-111.09l-.92-1.05v-.72c.85.44.76-.01,1.16-.44,1.69-1.76,8.99-8.46,9.67-9.65Z"/>
          <path class="cls-1" d="M163.07,27.72l22.65-5.49c-8.4,6.97-17.09,14.63-25.99,21.46-.53.41-.76,1.09-.71-.18.69-2.18,3.37-15.11,4.05-15.79Z"/>
          <polygon class="cls-1" points="147.83 55.05 147.83 55.77 124.38 104.1 136.29 43.51 147.83 55.05"/>
          <path class="cls-1" d="M136.29,43.51l-11.91,60.59-.72,1.29c-.13.09-.22.13-.31.13l-.39-.32-.02-.02L63.03,30.53s.21-.31.36-.36c24.32,4.25,48.74,8.38,72.9,13.34Z"/>
          <path class="cls-1" d="M122.96,105.2l.39.32c-.23.01-.33-.25-.39-.32Z"/>
          <path class="cls-1" d="M63.03,30.53l59.91,74.65c-18.13-4.74-36.4-13.45-54.49-18.03l-.36-1.08c-1.59-18.66-3.98-37.27-5.77-55.9.08-.14.55.33.71.36Z"/>
          <path class="cls-1" d="M68.09,86.07l-24.54-51.93v-.37l18.66-3.95,1.18.35c-.15.05-.33.36-.36.36-.16-.03-.63-.5-.71-.36,1.79,18.63,4.18,37.24,5.77,55.9Z"/>
          <path class="cls-1" d="M43.55,33.77v.37l-18.41,44c-.06-.3-.26-.69-.36-1.09-4.28-17.12-8.9-34.24-13.71-51.21.02-.05-.33-.39-.16-.74l.52-.34,31.4,8.29c.2.21.68.26.72.72Z"/>
          <path class="cls-1" d="M42.83,33.05l-31.4-8.29,17.79-5c4.53,4.44,9.09,8.85,13.61,13.29Z"/>
          <path class="cls-1" d="M25.14,78.14c.05.21-.03.49,0,.72L.25,84.27c1.99-10.81,3.84-21.65,5.77-32.46.37-.32.29-1.17.89-.35,6.1,8.41,11.41,17.43,17.87,25.59.1.4.3.79.36,1.09Z"/>
          <path class="cls-1" d="M24.78,77.05c-6.46-8.16-11.77-17.18-17.87-25.59-.6-.82-.52.03-.89.35,1.45-8.1,2.43-18.36,5.05-25.97,4.81,16.97,9.43,34.09,13.71,51.21Z"/>
        </g>
        <polygon class="cls-1" points="68.45 87.15 25.15 78.86 43.55 34.14 68.45 87.15"/>
      </g>
    </g>
  </g>
</svg>