<?xml version="1.0" encoding="UTF-8"?>
<svg id="Camada_2" data-name="Camada 2" xmlns="http://www.w3.org/2000/svg" viewBox="0 0 435.1 152.69">
  <defs>
    <style>
      .cls-1 {
        fill: #fff;
      }
    </style>
  </defs>
  <g id="Camada_1-2" data-name="Camada 1">
    <g>
      <polygon class="cls-1" points="185.62 44.95 196.59 45.46 218.55 73.79 218.55 44.95 229.52 44.95 229.52 93.67 219.55 93.17 196.59 63.85 196.59 93.67 185.62 93.67 185.62 44.95"/>
      <path class="cls-1" d="M133.48,44.22c38.12-5.58,40.88,49.14,5.58,50.38-32.52,1.13-36.44-45.86-5.58-50.38ZM135.47,54.13c-10.68,1.69-14.86,14.86-9.18,23.58,4.13,6.34,13.69,8.29,19.91,4.02,12.79-8.77,5.49-30.17-10.73-27.61Z"/>
      <path class="cls-1" d="M352.77,44.95c15.72,2.6,17.01,25.84,2.5,31.31.91,2.39,12.32,16.17,10.96,17.4-3.38-.48-9.03.94-11.98-.49-2.54-1.23-8.69-14.34-10.17-15.21-1.63-.95-6.55.22-8.78-.21v15.91h-10.98v-48.72c8.62,1.01,20.22-1.36,28.44,0ZM335.31,54.9c.58,3.05-1.5,12.74,1.63,13.78,2.12.7,11.03-.5,13.38-1.3,6.64-2.26,3.62-12.48-.55-12.48h-14.47Z"/>
      <path class="cls-1" d="M272.2,44.22c39.65-5.8,41.78,55.27-1.17,49.37-26.43-3.63-26.76-45.28,1.17-49.37ZM274.18,54.13c-16.54,2.6-15.28,28.91,2.09,30.03,20.39,1.32,20.23-33.54-2.09-30.03Z"/>
      <path class="cls-1" d="M92.81,44.95c-.07,1.86.69,9.94-1.5,9.94h-24.45v8.95h21.46c2.19,0,1.43,8.08,1.5,9.94h-22.95v9.94h25.95v9.94h-36.42c-.11,0-1.5-1.39-1.5-1.49v-47.23h37.92Z"/>
      <path class="cls-1" d="M413.98,44.13l21.12,49.54c-2.45-.5-10.4.8-11.84-.12-.46-.3-2.8-8.57-4.03-10.19s-17.05-.03-20.4-.66c-1.42.34-3.01,9.45-4.61,10.53-2.02,1.36-8.3-.01-11.01.45l20.04-48.13c1.99-2.77,7.54-1.44,10.73-1.41ZM415.14,72.78l-6.97-14.9-5,14.9h11.97Z"/>
      <polygon class="cls-1" points="10.98 44.95 10.98 83.73 34.93 83.73 34.93 93.67 0 93.67 0 44.95 10.98 44.95"/>
      <path class="cls-1" d="M224.54,149.35c-8.57,3.11-15.69,3.9-24.95,2.98-2.27-5.25,1.83-11.34,1-16.9,6.16.88,12.22-.02,17.96-1.99.69,5.09,2.08,12.41,5.99,15.91Z"/>
      <path class="cls-1" d="M242.5,138.41c-5.44,5.28-10.86,8.36-17.96,10.94-3.9-3.5-5.3-10.82-5.99-15.91,4.67-1.6,9.58-4.33,12.97-7.95,2.39,5.05,7.33,8.77,10.98,12.93Z"/>
      <path class="cls-1" d="M254.47,120.52c-2.37,6.3-7.15,13.21-11.98,17.9-3.65-4.16-8.59-7.87-10.98-12.93,1.98-2.11,5.99-8.31,6.99-10.94,5.26,2.05,10.25,5.35,15.97,5.97Z"/>
      <path class="cls-1" d="M238.51,114.55c1.61-4.24,1.14-9.49,3.49-12.93h15.47c.52,6.45-.73,12.88-2.99,18.89-5.72-.62-10.71-3.92-15.97-5.97Z"/>
      <path class="cls-1" d="M200.58,135.43c.83,5.56-3.26,11.65-1,16.9-7.58-.75-13.71-4.05-19.96-7.95,2.14.47,2.16-1.15,2.99-2.44,2.28-3.55,4.9-7.35,5.99-11.48,2.26,1.45,9.52,4.62,11.98,4.97Z"/>
      <path class="cls-1" d="M174.64,112.56c.5,2.29-1.13,2.14-2.6,2.82-3.91,1.81-8.24,2.93-12.37,4.14-1.02-2.79-2.42-5.55-2.91-8.53-.26-1.54-1.12-9.37.42-9.37h14.97c2.39,2.61,1.44,7.29,2.49,10.94Z"/>
      <path class="cls-1" d="M180.63,123.5c-3.07,3.77-7.88,9-12.97,9.94-4.28-5.48-5.58-7.31-7.98-13.92,4.12-1.2,8.46-2.33,12.37-4.14,1.47-.68,3.1-.53,2.6-2.82.68,2.35,4.35,8.91,5.99,10.94Z"/>
      <path class="cls-1" d="M188.61,130.46c-1.09,4.13-3.71,7.93-5.99,11.48-.83,1.29-.85,2.91-2.99,2.44-6.64-4.15-7.31-4.97-11.98-10.94,5.1-.94,9.9-6.17,12.97-9.94,1.15,1.42,6.31,5.89,7.98,6.96Z"/>
    </g>
    <g>
      <path class="cls-1" d="M164.83,5.07c-.68-.68-1.51-1.21-2.49-1.58s-1.94-.56-2.89-.56c-2.26,0-4.05.74-5.38,2.22-1.33,1.48-1.98,3.31-1.96,5.5,0,2.01.62,3.71,1.85,5.1,1.23,1.39,3.07,2.08,5.5,2.08,1.84,0,3.46-.59,4.87-1.77v-4.04h-5.55v-2.85h8.51v8.17c-2.11,2.32-4.72,3.47-7.83,3.47-1.77,0-3.34-.28-4.71-.84s-2.47-1.32-3.29-2.28c-.82-.96-1.43-2.03-1.85-3.22-.42-1.19-.63-2.46-.63-3.83,0-3.02.93-5.55,2.79-7.59,1.86-2.04,4.42-3.06,7.69-3.06,2.88,0,5.34,1.01,7.37,3.02l-1.99,2.05Z"/>
      <path class="cls-1" d="M195.94,20.42h-3.73l-6.07-6.89h-4.21v6.89h-3.19V.46c1.02,0,2.57,0,4.64.01,2.07,0,3.62.01,4.64.01,2.2,0,3.92.64,5.17,1.92,1.24,1.28,1.86,2.81,1.86,4.6,0,1.58-.44,2.94-1.32,4.09-.88,1.15-2.25,1.86-4.09,2.12l5.95,6.63.34.57ZM181.94,3.39v7.23h6.07c1.25,0,2.2-.34,2.85-1.02.65-.68.97-1.53.97-2.53s-.32-1.85-.97-2.58-1.58-1.1-2.82-1.1h-6.09Z"/>
      <path class="cls-1" d="M223.33.51v11.65c0,2.83-.82,5-2.45,6.51-1.63,1.51-3.71,2.22-6.24,2.12-2.35-.06-4.31-.83-5.88-2.33-1.57-1.5-2.35-3.6-2.35-6.29V.51h3.16v11.65c0,1.77.46,3.14,1.39,4.13.93.99,2.15,1.51,3.67,1.57,1.63.09,2.96-.37,3.99-1.38,1.03-1.02,1.54-2.45,1.54-4.31V.51h3.16Z"/>
      <path class="cls-1" d="M238.67,14.29v6.12h-3.19V.48c1.01,0,2.54,0,4.6-.01,2.06,0,3.6-.01,4.63-.01s1.96.16,2.82.47c.85.31,1.56.74,2.11,1.27.55.53,1.02,1.14,1.41,1.84.39.69.63,1.42.71,2.18.08.76.08,1.52,0,2.29-.09.77-.32,1.5-.7,2.19s-.85,1.31-1.41,1.84c-.56.53-1.27.96-2.12,1.28-.85.32-1.79.48-2.82.48h-6.04ZM238.67,11.36h6.04c.84,0,1.56-.19,2.18-.58s1.06-.88,1.34-1.48.41-1.24.41-1.92-.14-1.32-.41-1.92c-.28-.6-.72-1.09-1.34-1.48-.62-.39-1.34-.58-2.18-.58h-6.04v7.97Z"/>
      <path class="cls-1" d="M279.07,3.17c1.77,2.02,2.65,4.48,2.65,7.36,0,1.37-.21,2.66-.64,3.89-.43,1.22-1.04,2.32-1.85,3.29-.81.97-1.88,1.73-3.2,2.29-1.33.56-2.83.84-4.5.84s-3.17-.29-4.5-.87c-1.33-.58-2.4-1.35-3.2-2.32-.81-.97-1.42-2.06-1.85-3.26-.43-1.21-.64-2.48-.64-3.83,0-3.04.96-5.54,2.88-7.5,1.92-1.96,4.38-2.95,7.37-2.95,3.23.02,5.72,1.04,7.49,3.06ZM264.93,13.23c.28.84.69,1.62,1.24,2.33.55.71,1.29,1.28,2.21,1.71.92.43,1.97.64,3.15.64,2.33,0,4.09-.7,5.27-2.09,1.18-1.4,1.77-3.14,1.77-5.23,0-1.29-.23-2.49-.7-3.59s-1.24-2.04-2.33-2.8c-1.09-.77-2.41-1.16-3.94-1.18-2.24,0-3.98.7-5.22,2.11s-1.87,3.23-1.87,5.47c.02.91.17,1.79.44,2.63Z"/>
    </g>
  </g>
</svg>