<?xml version="1.0" encoding="UTF-8"?>
<svg id="Camada_2" data-name="Camada 2" xmlns="http://www.w3.org/2000/svg" viewBox="0 0 178.4 67.2">
  <defs>
    <style>
      .cls-1 {
        fill: #fff;
        fill-rule: evenodd;
      }
    </style>
  </defs>
  <g id="Camada_1-2" data-name="Camada 1">
    <g id="Camada_1-3" data-name="Camada 1">
      <path id="_-e-marca-indaia-eventos" data-name="-e-marca-indaia-eventos" class="cls-1" d="M4.3,10.3v33.6H0V10.3h4.3ZM47.1,10.3v34.2h-.3l-26.7-26.3h-.1v25.7h-2.3V9.7h.3l26.7,26.3h.2V10.3h2.2ZM59.1,43.9V10.3h11.1c2.67,0,5.1.4,7.3,1.2,2.2.87,4.1,2.03,5.7,3.5,1.6,1.53,2.83,3.33,3.7,5.4.87,2,1.3,4.2,1.3,6.6s-.47,4.73-1.4,6.8c-.87,2.07-2.1,3.87-3.7,5.4-1.6,1.47-3.47,2.63-5.6,3.5-2.13.8-4.4,1.2-6.8,1.2h-11.6ZM63.5,41.8h5.3c2.6,0,4.83-.43,6.7-1.3,1.8-.87,3.3-2,4.5-3.4,1.2-1.47,2.07-3.07,2.6-4.8s.8-3.47.8-5.2c0-1.93-.3-3.8-.9-5.6-.67-1.73-1.6-3.3-2.8-4.7-1.27-1.33-2.8-2.4-4.6-3.2-1.87-.8-3.97-1.2-6.3-1.2h-5.3v29.4ZM93.1,43.9h-2l14.3-33.7h2.4l15.7,33.7h-4.7l-13.1-28.3h-.5l-12.1,28.3ZM148,43.9h-2l14.3-33.7h2.4l15.7,33.7h-4.6l-13.2-28.3h-.5l-12.1,28.3ZM136.9,10.2v33.7h-4.3V10.2h4.3ZM161.5,0h5.3l-7.4,6.2h-1.9l4-6.2ZM51.5,56.3l-4.1,10.8h-.8l-4.2-10.8h.9l3.7,9.6,3.6-9.6h.9ZM92,56.3v10.7h-.7l-6.5-9.1v9.1h-.8v-10.7h.7l6.4,9.1v-9.1h.9ZM113.7,57h-3.9v10h-.9v-10h-3.8v-.7h8.6v.7ZM127.7,66.5c-.8-.53-1.37-1.2-1.7-2-.4-.87-.6-1.8-.6-2.8,0-1.07.2-2,.6-2.8.33-.87.9-1.57,1.7-2.1.73-.47,1.63-.7,2.7-.7s1.97.23,2.7.7c.73.53,1.3,1.2,1.7,2,.4.87.6,1.8.6,2.8,0,1.07-.2,2-.6,2.8-.4.87-.97,1.57-1.7,2.1-.73.47-1.63.7-2.7.7s-1.97-.23-2.7-.7ZM132.6,65.9c.6-.47,1.07-1.07,1.4-1.8.33-.73.5-1.57.5-2.5,0-.87-.17-1.67-.5-2.4-.33-.73-.8-1.33-1.4-1.8-.6-.4-1.33-.6-2.2-.6s-1.63.2-2.3.6c-.6.47-1.07,1.07-1.4,1.8-.27.73-.4,1.53-.4,2.4,0,.93.13,1.77.4,2.5.33.73.8,1.33,1.4,1.8.67.4,1.43.6,2.3.6s1.6-.2,2.2-.6ZM149.3,67c-.6-.2-1.13-.5-1.6-.9l.5-.7c.73.73,1.8,1.1,3.2,1.1.73,0,1.37-.2,1.9-.6.47-.4.7-.97.7-1.7,0-.4-.1-.73-.3-1-.27-.33-.57-.57-.9-.7-.33-.13-.8-.33-1.4-.6-.73-.2-1.3-.43-1.7-.7-.47-.2-.83-.47-1.1-.8-.33-.4-.5-.9-.5-1.5,0-.93.33-1.63,1-2.1.6-.47,1.33-.7,2.2-.7.73,0,1.33.1,1.8.3.53.13,1.07.4,1.6.8l-.5.7c-.4-.4-.83-.67-1.3-.8-.53-.2-1.07-.3-1.6-.3-.67,0-1.2.17-1.6.5-.47.33-.7.87-.7,1.6,0,.4.13.73.4,1,.2.27.5.5.9.7.33.13.8.3,1.4.5.67.27,1.23.5,1.7.7.4.2.77.5,1.1.9.27.4.4.9.4,1.5s-.17,1.13-.5,1.6c-.27.47-.67.83-1.2,1.1-.53.2-1.13.3-1.8.3-.87,0-1.57-.07-2.1-.2h0ZM29.2,61.7h-5.4v-.7h5.4v.7ZM29.8,57h-6v-.7h6v.7ZM30.1,66.2v.7h-6.3v-.7h6.3ZM69.9,61.6h-5.4v-.7h5.4v.7ZM70.5,57h-6v-.8h6v.8ZM70.9,66.2v.8h-6.4v-.8h6.4Z"/>
    </g>
  </g>
</svg>