<?xml version="1.0" encoding="UTF-8"?>
<svg id="Camada_2" data-name="Camada 2" xmlns="http://www.w3.org/2000/svg" viewBox="0 0 231.08 30.03">
  <defs>
    <style>
      .cls-1 {
        fill: #fff;
      }
    </style>
  </defs>
  <g id="Camada_1-2" data-name="Camada 1">
    <path class="cls-1" d="M99.98,19.52h15.24l-8.05-13-14.8,23.48h-6.73L103.64,1.83c1.36-1.94,4.03-2.42,5.97-1.06.4.28.74.62,1.03,1.01l18.05,28.22h-6.73l-3.17-5.25h-15.42l-3.36-5.23M169.94,24.75V.28h-5.72v26.88c0,.75.31,1.48.85,2,.55.56,1.3.87,2.08.87h26l3.39-5.25h-26.63M75.37,20.38c5.55,0,10.05-4.5,10.05-10.05S80.92.28,75.37.28h-25v29.72h5.71V5.54h18.94c2.66,0,4.81,2.15,4.81,4.81s-2.15,4.81-4.81,4.81h-16.11l17.06,14.84h8.29l-11.46-9.62h2.57M15.25,30h17.27c8.2-.21,14.68-7.04,14.47-15.24-.21-7.9-6.56-14.26-14.47-14.47H15.25C7.04.08.22,6.56,0,14.76c-.21,8.2,6.27,15.03,14.47,15.24.26,0,.51,0,.77,0M32.13,24.77H15.63c-5.31-.17-9.48-4.61-9.3-9.93.16-5.07,4.24-9.14,9.3-9.3h16.5c5.31-.17,9.75,3.99,9.93,9.3.17,5.31-3.99,9.75-9.3,9.93-.21,0-.41,0-.62,0M140.62,30h17.63l3.34-5.23h-20.58c-5.31.17-9.75-3.99-9.93-9.3-.17-5.31,3.99-9.75,9.3-9.93.21,0,.41,0,.62,0h16.75l3.38-5.25h-20.52c-8.2-.21-15.03,6.27-15.24,14.47-.21,8.2,6.27,15.03,14.47,15.24.26,0,.51,0,.77,0M210.49,24.77c-4.31,0-8.09-2.86-9.26-7h24.42l3.36-5.24h-27.78c1.17-4.14,4.95-7.01,9.26-7h16.76l3.35-5.25h-20.5c-8.2.21-14.68,7.04-14.47,15.24.21,7.9,6.56,14.26,14.47,14.47h17.63l3.35-5.23h-20.6"/>
  </g>
</svg>