<?xml version="1.0" encoding="UTF-8"?>
<svg id="Camada_2" data-name="Camada 2" xmlns="http://www.w3.org/2000/svg" viewBox="0 0 776.34 344.72">
  <defs>
    <style>
      .cls-1 {
        fill: #fcfcfc;
      }

      .cls-2 {
        fill: #fbfcfc;
      }

      .cls-3 {
        fill: #fefefe;
      }

      .cls-4 {
        fill: #fdfefe;
      }

      .cls-5 {
        fill: #fcfdfd;
      }

      .cls-6 {
        fill: #fdfdfd;
      }
    </style>
  </defs>
  <g id="Camada_1-2" data-name="Camada 1">
    <g>
      <path class="cls-3" d="M673.68,119.77l71.94,107.79v-107.79h30.72v162.44h-32.22c-.53-2.02-2.17-4.16-3.42-5.94-14.8-21.15-29.65-42.34-44.12-63.72-7.3-10.78-14.78-24.4-22.56-34.35-.46-.59-1.06-1.44-1.83-1.54v105.55h-30.72V119.77h32.22Z"/>
      <path class="cls-3" d="M376.93,120.52v132.5h71.19v28.45c-.81-.34-1.72.75-1.87.75h-100.04V119.77h28.1c.21,0,1.6,1.24,2.62.75Z"/>
      <path class="cls-3" d="M0,282.21l62.88-81.33L1.5,120.89c-.15-1.43-.03-1.07,1.12-1.12,9.68-.43,21.07-.4,30.76-.03,1.14.04,2.12.76,2.97.75.91-.01,1.78-1.09,2.65-.4l64.47,80.9-64.87,81.22H0Z"/>
      <path class="cls-3" d="M166.36,120.52l-48.7,66.14-1.5.48c.06-.74-.25-1.34-.72-1.88-6.37-7.4-12.7-14.86-18.73-22.53l32.17-42.59,1.85-.39c10.43.78,22.01-.92,32.29,0,1.26.11,2.16.65,3.34.78Z"/>
      <polygon class="cls-3" points="129.27 282.21 96.72 239.81 113.14 218.94 117.27 214.83 167.11 282.21 129.27 282.21"/>
      <polygon class="cls-3" points="162.99 0 193.32 31.01 162.29 61.36 131.89 31.06 162.99 0"/>
      <polygon class="cls-3" points="222.19 17.22 252.52 47.59 222.19 78.59 191.86 48.22 222.19 17.22"/>
      <polygon class="cls-3" points="183.22 56.14 213.55 86.51 183.22 117.52 152.89 87.15 183.22 56.14"/>
      <path class="cls-5" d="M442.13,316.64c2.04.29,5.72-.75,7.14.73,2.6,5.14,4.41,11.18,6.94,16.27.35.7.78,1.63,1.66,1.71l7.52-18.69,7.47-.03v26.57c0,1.57-5.99,1.57-5.99,0v-15.35l-2.4,3.97-5.15,12.44c-.81.08-1.78.2-2.58.07-.44-.07-.76-.1-1.14-.36-.89-.59-3.52-8.16-4.31-9.92l-3.9-6.96v17.22h-5.25v-27.7Z"/>
      <path class="cls-1" d="M101.91,333.86v-17.22h5.25v27.7l-5.66-.7-12.32-17.26v17.97c-1.16.1-5.25.24-5.25-1.12v-26.57l6.41.7,11.57,16.51Z"/>
      <path class="cls-1" d="M426.39,316.64v4.49h-11.62c-1.49,0-1.15,4.74-1.12,5.99h11.62c1.37,0,1.22,4.08,1.12,5.24h-11.62c-1.59,0-1.09,5.33-1.12,6.74h13.49v5.24h-17.61l-1.12-1.12v-26.57h17.98Z"/>
      <path class="cls-6" d="M27.72,324.86l-4.04,1.47c-3.03-3.51-4.6-5.98-9.81-5.19-8.17,1.24-9.56,14.05-2.11,17.81,4.88,2.46,11.19-.47,12.22-5.84l5.24,1.5c-5.83,16.84-30.11,11.18-27.7-7.09,1.24-9.42,11.67-14.19,19.99-10.29,2.8,1.31,6.24,4.36,6.21,7.63Z"/>
      <path class="cls-6" d="M577.01,316.64v4.49h-12.74v5.99h11.99v5.24h-11.99v6.74h13.49c.1,1.16.24,5.24-1.12,5.24h-17.61v-27.7h17.98Z"/>
      <path class="cls-6" d="M141.63,322.63l-4.04,1.45c-2.49-3.17-6.76-4.69-9.4-.99.8,4.75,6.71,4.28,10.23,6.11,5.43,2.83,6.24,10.04,1.23,13.53-5.78,4.03-16.99,1.37-17.51-6.63l4.13-1.47c1.14,0,1.19,5.51,6.75,5.26,3.83-.17,6.03-4.03,2.91-5.96-4.49-2.77-12-1.63-13.02-8.7-1.59-11,16.53-12.8,18.72-2.62Z"/>
      <path class="cls-6" d="M610.73,322.63l-4.83,1.54c-.53.01-.58-1.28-1.13-1.94-2.02-2.45-10.29-1.6-6.81,3.05s14.48,1.48,13.54,11.98-20.59,9.48-20.24-1.13l4.47-1.53c.66,4.81,5.43,6.54,9.62,4.36l.91-2.5c.08-4.45-13.21-3.43-14.26-10.48-.56-3.77-.1-5.99,3.01-8.2,5.31-3.76,14.3-2,15.71,4.84Z"/>
      <path class="cls-4" d="M162.61,316.64v19.09c0,1.36,3.3,4.03,4.9,4.15,1.94.15,5.59-2.52,5.59-4.15v-19.09h5.25v20.59c0,.56-2.37,4.68-3,5.23-4.27,3.74-14.29,2.84-16.83-2.64-.21-.46-1.15-3.17-1.15-3.34v-19.84h5.25Z"/>
      <polygon class="cls-3" points="241.3 316.64 241.3 321.13 233.05 321.13 233.05 344.34 227.81 344.34 227.81 321.13 219.56 321.13 219.56 316.64 241.3 316.64"/>
      <polygon class="cls-1" points="764.35 316.64 764.35 339.1 776.34 339.1 776.34 344.34 759.11 344.34 759.11 316.64 764.35 316.64"/>
      <polygon class="cls-1" points="200.08 316.64 200.08 339.1 212.07 339.1 212.07 344.34 194.84 344.34 194.84 316.64 200.08 316.64"/>
      <rect class="cls-3" x="699.16" y="315.89" width="5.99" height="28.45"/>
      <rect class="cls-3" x="330.47" y="316.64" width="5.99" height="27.7"/>
      <path class="cls-3" d="M621.81,276.01c-17.2-48.5-36.74-97.93-55.45-145.97-.72-1.86-3.61-9.83-4.79-10.19l-34.8.25-.63.86-60.78,161.24h29.6c.42,0,2.68-1.64,2.79-2.46l15.26-40.25,61.81.36,16.81,42.34h31.85c-.07-2.09-.97-4.23-1.66-6.2ZM523.81,209.59l19.86-51.65,1.47,1.5,18.39,50.15h-39.72Z"/>
      <path class="cls-3" d="M323.69,162.09c-.52-4.93-2.91-12.04-5.34-16.38-10.73-19.12-31.22-25.05-51.93-25.98-19.71-.88-40.13.66-59.91.1-.35.1-1.2.89-1.2,1.05v160.19l1.12,1.12h27.73c.15,0,1.07-1.09,1.87-.75v-55.77l1.12-1.12h38.97c.17,0,.46-.52.92-.58,34.09-4.74,50.18-28.44,46.64-61.89ZM283.24,189.73c-11.08,7.87-29.86,4.19-43.1,4.86-.91.05-4.09,1.45-4.09-.34v-44.91c.51-1.89,2.84-.4,4.09-.34,12.04.6,27.77-2.07,38.83,2.38,15.06,6.06,17.26,29.13,4.26,38.36Z"/>
      <path class="cls-6" d="M274.53,318.25c-2.97-1.92-7.53-3-11-2.23-6.23,1.39-11.6,8.8-10.97,15.18.92,9.31,8.28,14.53,17.44,12.98,11.54-1.95,14.11-19.77,4.54-25.94ZM272.59,337.42c-.93.92-4.79,2.54-6.15,2.45-11.75-.79-10.55-21.56,2.82-18.6,6.02,1.33,7.45,12.03,3.32,16.15Z"/>
      <path class="cls-6" d="M68.79,326.15c-1.18-6.95-9.94-11.59-16.58-10.13-.91.2-4.12,1.9-4.98,2.51-5.13,3.65-6.93,10.43-5.12,16.29,2.62,8.52,11.94,11.89,19.87,8.17,6.46-3.03,7.92-10.26,6.81-16.85ZM59.74,338.51c-7.97,4.33-13.71-2.92-12.52-11.01.33-2.27,3.53-5.75,5.74-6.24,11.24-2.48,14.28,13.17,6.77,17.25Z"/>
      <path class="cls-6" d="M681.95,319.23c-.49-.54-3.63-2.48-4.15-2.59-3.67-.81-9.86.59-13.86,0v27.7h5.25s0-9.73,0-9.73l3.31-.04c.56.08,4.89,8.62,6.42,9.42,1.51.78,3.61.2,5.26.35l-5.98-10.11c5.69-2.88,8.37-9.89,3.76-15ZM669.18,329.37v-8.24c4.37-.36,9.85-.08,9.01,5.63-.5,3.41-6.44,2.55-9.01,2.6Z"/>
      <path class="cls-1" d="M312.84,338.37c-.76-1.15-2.82-3.03-3.35-4.14-.09-.2,3.21-1.78,3.72-2.27,2.49-2.35,2.86-6.31,2.14-9.58-.48-2.2-4.07-5.38-6.24-5.75-4.02-.68-9.64.5-13.86,0v26.57c0,1.36,4.09,1.22,5.25,1.12v-9.73c5.34-1.11,7.37,5.96,9.82,9.65l5.91.08c-1.19-1.91-2.16-4.09-3.4-5.96ZM300.49,329.37l.34-7.52c.97-1.46,6.46-.85,7.9.41,1.57,1.38,2.07,4.79.62,6.23-1.48,1.47-6.71.68-8.86.88Z"/>
      <path class="cls-6" d="M538.05,334.25c4.89-2.88,6.97-7.08,5.11-12.61-.78-2.31-3.89-4.6-6.23-5.01-3.79-.65-9.12.48-13.11,0v27.7l4.91-.71.38-8.97,2.5-.76,6.53,10.36,5.91.08-5.99-10.08ZM529.05,329.37v-8.24c4.37-.36,9.85-.08,9.01,5.63-.5,3.41-6.44,2.55-9.01,2.6Z"/>
      <path class="cls-6" d="M735.07,316.7h-6.62l-9.8,27.64,5.2-.05,2.73-7.47c2.83.55,9.23-1.17,10.73,1.24.98,1.58,1.52,4.42,2.39,6.22l5.18.06-9.8-27.64ZM728.38,331.61l3-8.23c1.02-.21.83.76,1.11,1.5.86,2.26,1.35,4.64,2.64,6.73h-6.74Z"/>
      <path class="cls-6" d="M639.9,316.7h-6.63s-9.79,27.64-9.79,27.64l5.2-.05,2.35-7.39,11.16-.02,2.32,7.41,5.95.04-10.55-27.63ZM633.21,331.61l3-8.23c.96,0,1.56,2.18,1.87,2.99.67,1.73,1.02,3.58,1.87,5.24h-6.74Z"/>
      <path class="cls-6" d="M366.83,317.37c-1.21-1.27-4.69-.86-6.42-.39l-10.45,27.36,5.29-.33,3.41-7.07,9.6-.12,3.4,7.18,5.28.34-10.1-26.96ZM366.44,331.61h-5.99s2.25-8.23,2.25-8.23c1.63.25,4.08,7.91,3.74,8.23Z"/>
      <path class="cls-2" d="M506.57,318.51c-.36-.31-3.72-1.8-4.12-1.87-4-.69-9.65.5-13.86,0v26.57c0,1.36,4.09,1.22,5.25,1.12v-9.73c4.18.47,12.44-.36,14.4-4.7,1.29-2.86.84-9.24-1.66-11.39ZM503.22,327.14c-1.36,2.18-6.84,3.11-8.67,1.89-1.16-.77-1.32-7.31.48-7.82,3.86-1.1,10.67,1.12,8.19,5.94Z"/>
    </g>
  </g>
</svg>